# xmcd CD database file
#
# Track frame offsets:
#	150
#	9847
#	25087
#	34877
#	44175
#	55182
#	65540
#	75372
#	87097
#	99342
#
# Disc length: 1477 seconds
#
# Revision: 3
# Processed by: cddbd v1.4PL0 Copyright (c) Steve Scherf et al.
# Submitted via: CDex 1.50
#
DISCID=6f05c30a
DTITLE=Jim Reeves - The Country Side of Jim Reeves
DYEAR=1900
DGENRE=Country
TTITLE0=A Railroad Bum
TTITLE1=Blue Side of Lonesome
TTITLE2=Waitin's For a Train
TTITLE3=I Won't Forget You
TTITLE4=My Lips Are Sealed
TTITLE5=Most of the Time
TTITLE6=When Two Worlds Collide
TTITLE7=Yonder Comes a Sucker
TTITLE8=A Fallen Star
TTITLE9=Highway to Nowhere
EXTD=
EXTT0=
EXTT1=
EXTT2=
EXTT3=
EXTT4=
EXTT5=
EXTT6=
EXTT7=
EXTT8=
EXTT9=
PLAYORDER=
